<svg fill="none" xmlns="http://www.w3.org/2000/svg"><symbol viewBox="0 0 24 24" fill="currentColor" id="chevron-down"><path d="M12.72 16.207a1 1 0 0 1-1.415 0l-6-6A1 1 0 0 1 6.72 8.793l5.293 5.293 5.293-5.293a1 1 0 0 1 1.414 1.414l-6 6Z"/></symbol><symbol viewBox="0 0 24 24" fill="currentCOlor" id="chevron-up"><path d="M11.305 8.305a1 1 0 0 1 1.414 0l6 6a1 1 0 0 1-1.414 1.415l-5.293-5.293L6.72 15.72a1 1 0 0 1-1.414-1.415l6-6Z" fill="currentColor"/></symbol><symbol viewBox="0 0 24 24" fill="currentColor" id="check"><g clip-path="url('#clip0_10_90')"><path d="M19.281 5.781 9 16.063 4.719 11.78 3.28 13.22l5 5 .719.687.719-.687 11-11L19.28 5.78Z"/></g><defs><clipPath id="clip0_10_90"><path d="M0 0h24v24H0z"/></clipPath></defs></symbol><symbol viewBox="0 0 24 24" fill="currentColor" id="cart"><path d="M2.842 4A.848.848 0 0 0 2 4.85c0 .468.378.85.842.85h1.869l2.21 8.925A1.673 1.673 0 0 0 8.553 15.9h9.657a1.66 1.66 0 0 0 1.606-1.248L22 6.55H7.895l.42 1.7h11.5L18.21 14.2H8.553l-2.21-8.925A1.673 1.673 0 0 0 4.71 4H2.842Zm14.316 11.9c-1.385 0-2.526 1.152-2.526 2.55S15.773 21 17.158 21c1.385 0 2.526-1.152 2.526-2.55s-1.141-2.55-2.526-2.55Zm-7.58 0c-1.384 0-2.525 1.152-2.525 2.55S8.194 21 9.579 21c1.385 0 2.526-1.152 2.526-2.55S10.964 15.9 9.58 15.9Zm.001 1.7c.474 0 .842.372.842.85s-.368.85-.842.85a.835.835 0 0 1-.842-.85c0-.478.368-.85.842-.85Zm7.579 0c.474 0 .842.372.842.85s-.368.85-.842.85a.835.835 0 0 1-.842-.85c0-.478.368-.85.842-.85Z"/></symbol><symbol viewBox="0 0 24 24" fill="currentColor" id="avatar"><path d="M12 3.75A5.26 5.26 0 0 0 6.75 9c0 1.808.923 3.413 2.32 4.36-2.674 1.148-4.57 3.802-4.57 6.89H6c0-3.322 2.678-6 6-6s6 2.678 6 6h1.5c0-3.088-1.895-5.742-4.57-6.89A5.268 5.268 0 0 0 17.25 9 5.26 5.26 0 0 0 12 3.75Zm0 1.5c2.08 0 3.75 1.67 3.75 3.75s-1.67 3.75-3.75 3.75S8.25 11.08 8.25 9 9.92 5.25 12 5.25Z"/></symbol><symbol viewBox="0 0 24 24" fill="currentColor" id="trashcan"><g clip-path="url('#clip0_1519_17130')"><path d="M10.4 2.75c-.366 0-.741.138-1.006.422S9 3.857 9 4.25V5H5v1.5h1v12.25C6 19.983 6.949 21 8.1 21h7.8c1.151 0 2.1-1.017 2.1-2.25V6.5h1V5h-4v-.75c0-.393-.129-.794-.394-1.078A1.374 1.374 0 0 0 13.6 2.75h-3.2ZM10.5 4h3v1h-3V4Zm-3 2.5h9v12.25c0 .416-.312.75-.7.75H8.2c-.388 0-.7-.334-.7-.75V6.5ZM9 9v8.25h1V9H9Zm2.5 0v8.25h1V9h-1ZM14 9v8.25h1V9h-1Z"/></g><defs><clipPath id="clip0_1519_17130"><path d="M0 0h24v24H0z"/></clipPath></defs></symbol></svg>