<svg fill="none"
    xmlns="http://www.w3.org/2000/svg">
    
    <symbol viewBox="0 0 24 24" fill="currentColor" id="chevron-down">
      <path d="M12.7193 16.2072C12.5318 16.3947 12.2775 16.5 12.0123 16.5C11.7471 16.5 11.4928 16.3947 11.3053 16.2072L5.30529 10.2072C5.12313 10.0186 5.02234 9.76601 5.02461 9.50381C5.02689 9.24162 5.13206 8.9908 5.31747 8.80539C5.50288 8.61999 5.75369 8.51482 6.01589 8.51254C6.27809 8.51026 6.53069 8.61105 6.71929 8.79321L12.0123 14.0862L17.3053 8.79321C17.4939 8.61106 17.7465 8.51026 18.0087 8.51254C18.2709 8.51482 18.5217 8.61999 18.7071 8.8054C18.8925 8.9908 18.9977 9.24162 19 9.50381C19.0022 9.76601 18.9014 10.0186 18.7193 10.2072L12.7193 16.2072Z" fill="#3E4849"/>
    </symbol>

    <symbol viewBox="0 0 24 24" fill="currentCOlor" id="chevron-up">
      <path d="M11.3053 8.30548C11.4928 8.11801 11.7471 8.01269 12.0123 8.01269C12.2775 8.01269 12.5318 8.11801 12.7193 8.30548L18.7193 14.3055C18.9015 14.4941 19.0022 14.7467 19 15.0089C18.9977 15.2711 18.8925 15.5219 18.7071 15.7073C18.5217 15.8927 18.2709 15.9979 18.0087 16.0002C17.7465 16.0024 17.4939 15.9016 17.3053 15.7195L12.0123 10.4265L6.71929 15.7195C6.53069 15.9016 6.27809 16.0024 6.01589 16.0002C5.7537 15.9979 5.50288 15.8927 5.31748 15.7073C5.13207 15.5219 5.0269 15.2711 5.02462 15.0089C5.02234 14.7467 5.12314 14.4941 5.3053 14.3055L11.3053 8.30548Z" fill="#3E4849"/>
    </symbol>


    <svg viewBox="0 0 24 24" fill="currentColor" id="check">
      <g clip-path="url(#clip0_10_90)">
        <path d="M19.2812 5.78125L9 16.0625L4.71875 11.7812L3.28125 13.2188L8.28125 18.2188L9 18.9062L9.71875 18.2188L20.7188 7.21875L19.2812 5.78125Z" fill="#3E4849"/>
      </g>
      <defs>
        <clipPath id="clip0_10_90">
          <rect width="24" height="24" fill="white"/>
        </clipPath>
      </defs>
    </svg>

</svg>
