<svg fill="none"
  xmlns="http://www.w3.org/2000/svg">

  <symbol viewBox="0 0 24 24" fill="currentColor" id="chevron-down">
    <path
      d="M12.7193 16.2072C12.5318 16.3947 12.2775 16.5 12.0123 16.5C11.7471 16.5 11.4928 16.3947 11.3053 16.2072L5.30529 10.2072C5.12313 10.0186 5.02234 9.76601 5.02461 9.50381C5.02689 9.24162 5.13206 8.9908 5.31747 8.80539C5.50288 8.61999 5.75369 8.51482 6.01589 8.51254C6.27809 8.51026 6.53069 8.61105 6.71929 8.79321L12.0123 14.0862L17.3053 8.79321C17.4939 8.61106 17.7465 8.51026 18.0087 8.51254C18.2709 8.51482 18.5217 8.61999 18.7071 8.8054C18.8925 8.9908 18.9977 9.24162 19 9.50381C19.0022 9.76601 18.9014 10.0186 18.7193 10.2072L12.7193 16.2072Z"
      fill="currentColor" />
  </symbol>

  <symbol viewBox="0 0 24 24" fill="currentCOlor" id="chevron-up">
    <path
      d="M11.3053 8.30548C11.4928 8.11801 11.7471 8.01269 12.0123 8.01269C12.2775 8.01269 12.5318 8.11801 12.7193 8.30548L18.7193 14.3055C18.9015 14.4941 19.0022 14.7467 19 15.0089C18.9977 15.2711 18.8925 15.5219 18.7071 15.7073C18.5217 15.8927 18.2709 15.9979 18.0087 16.0002C17.7465 16.0024 17.4939 15.9016 17.3053 15.7195L12.0123 10.4265L6.71929 15.7195C6.53069 15.9016 6.27809 16.0024 6.01589 16.0002C5.7537 15.9979 5.50288 15.8927 5.31748 15.7073C5.13207 15.5219 5.0269 15.2711 5.02462 15.0089C5.02234 14.7467 5.12314 14.4941 5.3053 14.3055L11.3053 8.30548Z"
      fill="currentColor" />
  </symbol>


  <symbol viewBox="0 0 24 24" fill="currentColor" id="check">
    <g clip-path="url(#clip0_10_90)">
      <path
        d="M19.2812 5.78125L9 16.0625L4.71875 11.7812L3.28125 13.2188L8.28125 18.2188L9 18.9062L9.71875 18.2188L20.7188 7.21875L19.2812 5.78125Z"
        fill="currentColor" />
    </g>
    <defs>
      <clipPath id="clip0_10_90">
        <rect width="24" height="24" fill="currentColor" />
      </clipPath>
    </defs>
  </symbol>

  <symbol viewBox="0 0 24 24" fill="currentColor" id="cart">
    <path
      d="M2.84211 4C2.37829 4 2 4.38184 2 4.85C2 5.31816 2.37829 5.7 2.84211 5.7H4.71053L6.92105 14.625C7.10855 15.382 7.7796 15.9 8.55263 15.9H18.2105C18.9704 15.9 19.6151 15.392 19.8158 14.6516L22 6.55H7.89474L8.31579 8.25H19.8158L18.2105 14.2H8.55263L6.34211 5.275C6.15461 4.51797 5.48355 4 4.71053 4H2.84211ZM17.1579 15.9C15.773 15.9 14.6316 17.0521 14.6316 18.45C14.6316 19.8479 15.773 21 17.1579 21C18.5428 21 19.6842 19.8479 19.6842 18.45C19.6842 17.0521 18.5428 15.9 17.1579 15.9ZM9.57895 15.9C8.19408 15.9 7.05263 17.0521 7.05263 18.45C7.05263 19.8479 8.19408 21 9.57895 21C10.9638 21 12.1053 19.8479 12.1053 18.45C12.1053 17.0521 10.9638 15.9 9.57895 15.9ZM9.57895 17.6C10.0526 17.6 10.4211 17.9719 10.4211 18.45C10.4211 18.9281 10.0526 19.3 9.57895 19.3C9.10526 19.3 8.73684 18.9281 8.73684 18.45C8.73684 17.9719 9.10526 17.6 9.57895 17.6ZM17.1579 17.6C17.6316 17.6 18 17.9719 18 18.45C18 18.9281 17.6316 19.3 17.1579 19.3C16.6842 19.3 16.3158 18.9281 16.3158 18.45C16.3158 17.9719 16.6842 17.6 17.1579 17.6Z"
      fill="currentColor" />
  </symbol>

  <symbol viewBox="0 0 24 24" fill="currentColor" id="avatar">
    <path
      d="M12 3.75C9.1084 3.75 6.75 6.1084 6.75 9C6.75 10.8076 7.67285 12.4131 9.07031 13.3594C6.39551 14.5078 4.5 17.1621 4.5 20.25H6C6 16.9277 8.67773 14.25 12 14.25C15.3223 14.25 18 16.9277 18 20.25H19.5C19.5 17.1621 17.6045 14.5078 14.9297 13.3594C16.3271 12.4131 17.25 10.8076 17.25 9C17.25 6.1084 14.8916 3.75 12 3.75ZM12 5.25C14.0801 5.25 15.75 6.91992 15.75 9C15.75 11.0801 14.0801 12.75 12 12.75C9.91992 12.75 8.25 11.0801 8.25 9C8.25 6.91992 9.91992 5.25 12 5.25Z"
      fill="currentColor" />
  </symbol>

  <symbol viewBox="0 0 24 24" fill="currentColor" id="trashcan">
    <g clip-path="url(#clip0_1519_17130)">
      <path
        d="M10.4 2.75C10.0336 2.75 9.65898 2.8877 9.39375 3.17188C9.12852 3.45605 9 3.85742 9 4.25V5H5V6.5H6V18.75C6 19.9834 6.94883 21 8.1 21H15.9C17.0512 21 18 19.9834 18 18.75V6.5H19V5H15V4.25C15 3.85742 14.8715 3.45605 14.6062 3.17188C14.341 2.8877 13.9664 2.75 13.6 2.75H10.4ZM10.5 4H13.5V5H10.5V4ZM7.5 6.5H16.5V18.75C16.5 19.166 16.1883 19.5 15.8 19.5H8.2C7.81172 19.5 7.5 19.166 7.5 18.75V6.5ZM9 9V17.25H10V9H9ZM11.5 9V17.25H12.5V9H11.5ZM14 9V17.25H15V9H14Z"
        fill="currentColor" />
    </g>
    <defs>
      <clipPath id="clip0_1519_17130">
        <rect width="24" height="24" fill="currentColor" />
      </clipPath>
    </defs>
  </symbol>

  <symbol viewBox="0 0 24 24" fill="currentColor" id="plus">
    <path
      d="M12.9998 4.10059C12.9998 3.54836 12.5521 3.10069 11.9999 3.1007C11.4477 3.10069 11 3.54836 11 4.10059L11 11.0003L4.10026 11.0003C3.54809 11.0003 3.10042 11.4479 3.10041 12.0002C3.1004 12.5524 3.54807 13.0001 4.1003 13.0001L11 13.0001L11 19.8998C11 20.452 11.4476 20.8997 11.9999 20.8997C12.5521 20.8997 12.9998 20.452 12.9997 19.8998L12.9998 13.0001L19.8995 13.0001C20.4517 13.0001 20.8994 12.5524 20.8994 12.0002C20.8994 11.4479 20.4517 11.0003 19.8995 11.0003L12.9997 11.0003L12.9998 4.10059Z"
      fill="currentColor" />
  </symbol>

  <symbol viewBox="0 0 24 24" fill="currentColor" id="minus">
    <path
      d="M11 11.0003L4.10026 11.0003C3.54809 11.0003 3.10042 11.4479 3.10041 12.0002C3.1004 12.5524 3.54807 13.0001 4.1003 13.0001L11 13.0001L11.9999 13.0002L12.9998 13.0001L19.8995 13.0001C20.4517 13.0001 20.8994 12.5524 20.8994 12.0002C20.8994 11.4479 20.4517 11.0003 19.8995 11.0003L12.9997 11.0003H11Z"
      fill="currentColor" />
  </symbol>

  <symbol viewBox="0 0 24 24" fill="currentColor" id="trashcan">
    <g clip-path="url(#clip0_1519_17130)">
      <path
        d="M10.4 2.75C10.0336 2.75 9.65898 2.8877 9.39375 3.17188C9.12852 3.45605 9 3.85742 9 4.25V5H5V6.5H6V18.75C6 19.9834 6.94883 21 8.1 21H15.9C17.0512 21 18 19.9834 18 18.75V6.5H19V5H15V4.25C15 3.85742 14.8715 3.45605 14.6062 3.17188C14.341 2.8877 13.9664 2.75 13.6 2.75H10.4ZM10.5 4H13.5V5H10.5V4ZM7.5 6.5H16.5V18.75C16.5 19.166 16.1883 19.5 15.8 19.5H8.2C7.81172 19.5 7.5 19.166 7.5 18.75V6.5ZM9 9V17.25H10V9H9ZM11.5 9V17.25H12.5V9H11.5ZM14 9V17.25H15V9H14Z"
        fill="currentColor" />
    </g>
    <defs>
      <clipPath id="clip0_1519_17130">
        <rect width="24" height="24" fill="currentColor" />
      </clipPath>
    </defs>
  </symbol>

  <symbol viewBox="0 0 24 24" fill="none" id="search">
    <g clip-path="url(#clip0_1398_6381)">
      <path
        d="M10.25 3.5C6.25482 3.5 3 6.75482 3 10.75C3 14.7452 6.25482 18 10.25 18C11.9782 18 13.5669 17.3895 14.8145 16.375L19.7197 21.2803C19.7888 21.3523 19.8716 21.4097 19.9632 21.4493C20.0548 21.4889 20.1534 21.5098 20.2532 21.5108C20.3529 21.5118 20.4519 21.4929 20.5443 21.4552C20.6367 21.4175 20.7206 21.3617 20.7912 21.2912C20.8617 21.2206 20.9175 21.1367 20.9552 21.0443C20.9929 20.9519 21.0118 20.8529 21.0108 20.7532C21.0098 20.6534 20.9889 20.5548 20.9493 20.4632C20.9097 20.3716 20.8523 20.2888 20.7803 20.2197L15.875 15.3145C16.8895 14.0669 17.5 12.4782 17.5 10.75C17.5 6.75482 14.2452 3.5 10.25 3.5ZM10.25 5C13.4345 5 16 7.56548 16 10.75C16 12.3013 15.3881 13.7029 14.3955 14.7354C14.3343 14.7803 14.2803 14.8343 14.2354 14.8955C13.2029 15.8881 11.8013 16.5 10.25 16.5C7.06548 16.5 4.5 13.9345 4.5 10.75C4.5 7.56548 7.06548 5 10.25 5Z"
        fill="currentColor" />
    </g>
    <defs>
      <clipPath id="clip0_1398_6381">
        <rect width="24" height="24" fill="currentColor" />
      </clipPath>
    </defs>
  </symbol>

  <symbol viewBox="0 0 24 24" fill="none" id="close">
    <path
      d="M7.12105 5.70693C6.73057 5.31644 6.09747 5.31644 5.70699 5.70693C5.3165 6.09741 5.3165 6.73051 5.70699 7.12099L10.5859 11.9998L5.70699 16.8787C5.3165 17.2691 5.3165 17.9022 5.70699 18.2927C6.09747 18.6832 6.73057 18.6832 7.12105 18.2927L11.9999 13.4139L16.8788 18.2927C17.2692 18.6832 17.9023 18.6832 18.2928 18.2927C18.6833 17.9022 18.6833 17.2691 18.2928 16.8787L13.414 11.9998L18.2928 7.12099C18.6833 6.73051 18.6833 6.09741 18.2928 5.70693C17.9023 5.31644 17.2692 5.31644 16.8788 5.70693L11.9999 10.5858L7.12105 5.70693Z"
      fill="currentColor" />
  </symbol>


</svg>